<svg width="244" height="301" viewBox="0 0 244 301" fill="none" xmlns="http://www.w3.org/2000/svg">
<path d="M75.2376 105.332C110.28 161.995 145.102 218.335 179.85 274.719C181.312 277.091 182.808 278.182 185.738 278.121C195.899 277.909 206.073 277.831 216.23 278.123C220.061 278.233 220.862 277.126 220.854 273.421C220.73 212.262 220.766 151.103 220.766 89.9447C220.766 68.9474 220.693 47.9496 220.843 26.9534C220.867 23.5692 220.135 22.2998 216.506 22.4654C209.854 22.769 203.15 22.9308 196.522 22.4286C191.578 22.0539 190.953 24.0089 190.96 28.3027C191.084 95.4604 191.052 162.618 191.016 229.776C191.015 231.534 191.568 233.397 190.307 235.524C142.461 157.271 94.7699 79.2715 46.5333 0.379188C55.1964 0.379188 62.9235 0.336769 70.6497 0.405037C72.9668 0.425499 73.3055 2.69794 74.2049 4.16087C100.699 47.2534 127.149 90.3725 153.615 133.482C158.374 141.233 163.171 148.961 168.809 158.089C168.809 155.252 168.809 153.868 168.809 152.484C168.812 103.49 168.869 54.4965 168.723 5.50343C168.71 1.42593 169.61 0.214592 173.841 0.259361C195.502 0.48864 217.168 0.431633 238.831 0.29702C241.965 0.277549 243.05 0.893974 243.047 4.29746C242.951 101.618 242.95 198.939 243.048 296.259C243.051 299.681 241.957 300.284 238.831 300.266C217.168 300.135 195.503 300.109 173.84 300.294C170.489 300.323 168.862 299.079 167.21 296.4C119.943 219.781 72.5951 143.211 25.2574 66.6356C24.6544 65.6602 24.0127 64.7086 23.3666 63.7112C21.7949 64.4344 22.5516 65.782 22.5509 66.753C22.5016 135.744 22.5285 204.735 22.4203 273.726C22.4149 277.228 23.3238 278.259 26.8344 278.116C33.8219 277.831 40.8363 277.84 47.8252 278.107C51.3512 278.242 52.2696 277.132 52.2582 273.652C52.1382 236.991 52.1869 200.329 52.1886 163.667C52.1892 152.059 52.1887 140.451 53.0562 128.509C58.2612 136.674 63.1429 145.07 68.7752 152.929C73.1666 159.056 74.6232 165.393 74.5708 172.872C74.2846 213.698 74.3767 254.527 74.527 295.355C74.5415 299.282 73.5536 300.328 69.6056 300.29C48.1103 300.088 26.6112 300.094 5.11579 300.29C1.24259 300.325 0.195992 299.373 0.20083 295.422C0.318978 198.768 0.283868 102.114 0.369775 5.45978C0.371255 3.801 -1.09299 0.613151 1.79582 0.584388C5.06616 0.551857 9.09329 -1.63575 11.7085 2.66911C17.9291 12.9086 24.3012 23.056 30.5997 33.2483C36.2819 42.4432 41.9475 51.6483 48.2468 61.8648C48.2468 48.4875 48.2468 36.1932 48.2468 24.0862C49.882 23.4069 50.1101 24.4791 50.4719 25.0515C57.6734 36.4455 64.7986 47.8881 72.0485 59.2511C73.2956 61.2058 73.5681 63.174 73.5583 65.38C73.5086 76.5449 73.5639 87.7104 73.5182 98.8754C73.5092 101.077 73.5561 103.197 75.2376 105.332Z" fill="#FCFCFC"/>
</svg>
